0
SECTION
2
HEADER
9
$INSUNITS
70
4
9
$ACADVER
1
AC1014
9
$HANDSEED
5
FFFF
0
ENDSEC
0
SECTION
2
TABLES
0
TABLE
2
VPORT
5
8
100
AcDbSymbolTable
0
ENDTAB
0
TABLE
2
LTYPE
5
5
100
AcDbSymbolTable
0
LTYPE
5
14
100
AcDbSymbolTableRecord
100
AcDbLinetypeTableRecord
2
BYBLOCK
70
0
0
LTYPE
5
15
100
AcDbSymbolTableRecord
100
AcDbLinetypeTableRecord
2
BYLAYER
70
0
0
ENDTAB
0
TABLE
2
LAYER
5
2
100
AcDbSymbolTable
70
2
0
LAYER
5
50
100
AcDbSymbolTableRecord
100
AcDbLayerTableRecord
2
0
70
0
6
CONTINUOUS
0
ENDTAB
0
TABLE
2
STYLE
5
3
100
AcDbSymbolTable
70
1
0
STYLE
5
11
100
AcDbSymbolTableRecord
100
AcDbTextStyleTableRecord
2
STANDARD
70
0
0
ENDTAB
0
TABLE
2
VIEW
5
6
100
AcDbSymbolTable
70
0
0
ENDTAB
0
TABLE
2
UCS
5
7
100
AcDbSymbolTable
70
0
0
ENDTAB
0
TABLE
2
APPID
5
9
100
AcDbSymbolTable
70
2
0
APPID
5
12
100
AcDbSymbolTableRecord
100
AcDbRegAppTableRecord
2
ACAD
70
0
0
ENDTAB
0
TABLE
2
DIMSTYLE
5
A
100
AcDbSymbolTable
70
1
0
ENDTAB
0
TABLE
2
BLOCK_RECORD
5
1
100
AcDbSymbolTable
70
1
0
BLOCK_RECORD
5
1F
100
AcDbSymbolTableRecord
100
AcDbBlockTableRecord
2
*MODEL_SPACE
0
BLOCK_RECORD
5
1B
100
AcDbSymbolTableRecord
100
AcDbBlockTableRecord
2
*PAPER_SPACE
0
ENDTAB
0
ENDSEC
0
SECTION
2
BLOCKS
0
BLOCK
5
20
100
AcDbEntity
100
AcDbBlockBegin
2
*MODEL_SPACE
0
ENDBLK
5
21
100
AcDbEntity
100
AcDbBlockEnd
0
BLOCK
5
1C
100
AcDbEntity
100
AcDbBlockBegin
2
*PAPER_SPACE
0
ENDBLK
5
1D
100
AcDbEntity
100
AcDbBlockEnd
0
ENDSEC
0
SECTION
2
ENTITIES
0
LWPOLYLINE
5
100
100
AcDbEntity
8
0
100
AcDbPolyline
90
4
70
1
43
0.0
10
7.9999999962747097
20
18.249999958642199
10
5.9999999962747097
20
18.249999954537341
10
6.0000000044844288
20
14.249999954537342
10
7.9999999962747097
20
14.249999950812054
0
LWPOLYLINE
5
101
100
AcDbEntity
8
0
100
AcDbPolyline
90
4
70
1
43
0.0
10
-126.00000187754631
20
26.249999962747061
10
-126.00000187754631
20
22.249999962747061
10
-124.00000181049109
20
22.249999962747061
10
-124.00000181049109
20
26.249999962747061
0
LWPOLYLINE
5
102
100
AcDbEntity
8
0
100
AcDbPolyline
90
4
70
1
43
0.0
10
-124.00000181049109
20
18.249999962747061
10
-126.00000187754631
20
18.249999962747061
10
-126.00000187754631
20
14.24999996274706
10
-124.00000181049109
20
14.24999996274706
0
LWPOLYLINE
5
103
100
AcDbEntity
8
0
100
AcDbPolyline
90
4
70
1
43
0.0
10
8.0000000447034836
20
26.249999962747061
10
6.0000000968575495
20
26.249999957159122
10
6.0000000894069672
20
22.249999962747061
10
8.0000000447034836
20
22.249999962747061
0
LWPOLYLINE
5
104
100
AcDbEntity
8
0
100
AcDbPolyline
90
4
70
1
43
0.0
10
13.999999988824129
20
14.249999955296481
10
13.99999999627471
20
18.249999955296481
10
11.99999999627471
20
18.249999959021771
10
11.999999988824131
20
14.249999959021771
0
LWPOLYLINE
5
105
100
AcDbEntity
8
0
100
AcDbPolyline
90
4
70
1
43
0.0
10
-120.00000175088644
20
22.249999962747061
10
-118.00000175833702
20
22.249999962747061
10
-118.00000175833702
20
26.249999962747061
10
-120.00000175088644
20
26.249999962747061
0
LWPOLYLINE
5
106
100
AcDbEntity
8
0
100
AcDbPolyline
90
4
70
1
43
0.0
10
-118.00000175833702
20
14.24999996274706
10
-118.00000175833702
20
18.249999962747061
10
-120.00000175088644
20
18.249999962747061
10
-120.00000175088644
20
14.24999996274706
0
LWPOLYLINE
5
107
100
AcDbEntity
8
0
100
AcDbPolyline
90
4
70
1
43
0.0
10
12
20
22.249999959021771
10
14
20
22.249999955296481
10
14.000000007450581
20
26.249999955296481
10
12
20
26.249999959021771
0
LWPOLYLINE
5
108
100
AcDbEntity
8
0
100
AcDbPolyline
90
12
70
1
43
0.0
10
-122.00000174343586
20
10.249999962747061
42
-0.99999999999999989
10
-122.00000174343586
20
30.249999962747061
42
0.41421356237309526
10
-117.00000174343586
20
35.249999962747069
10
-117.00000174343586
20
45.499999999999929
10
5.000000074505806
20
45.499999999999929
10
5.000000074505806
20
35.249999962747069
42
0.41421356237309515
10
10.000000074505806
20
30.249999962747061
42
-0.9999999925494194
10
10.000000074505806
20
10.249999962747061
42
0.41421356237309526
10
5.000000074505806
20
5.2499999627470562
10
5.000000074505806
20
-5.000000074505806
10
-117.00000174343586
20
-5.000000074505806
10
-117.00000174343586
20
5.2499999627470606
42
0.41421356237309509
0
LWPOLYLINE
5
109
100
AcDbEntity
8
0
100
AcDbPolyline
90
4
70
1
43
0.0
10
-92
20
40.499999999999929
10
-112
20
40.499999999999929
10
-112
20
0
10
-92
20
0
0
LWPOLYLINE
5
110
100
AcDbEntity
8
0
100
AcDbPolyline
90
4
70
1
43
0.0
10
-66
20
0
10
-46
20
0
10
-46
20
40.499999999999915
10
-66
20
40.499999999999915
0
LWPOLYLINE
5
111
100
AcDbEntity
8
0
100
AcDbPolyline
90
4
70
1
43
0.0
10
-89
20
2.7755575615628854e-16
10
-69
20
0
10
-69
20
40.499999999999901
10
-89
20
40.499999999999901
0
LWPOLYLINE
5
112
100
AcDbEntity
8
0
100
AcDbPolyline
90
4
70
1
43
0.0
10
-20
20
0
10
0
20
0
10
0
20
40.499999999999929
10
-20
20
40.5
0
LWPOLYLINE
5
113
100
AcDbEntity
8
0
100
AcDbPolyline
90
4
70
1
43
0.0
10
-43
20
0
10
-23
20
0
10
-23
20
40.499999999999908
10
-43
20
40.499999999999908
0
ENDSEC
0
SECTION
2
OBJECTS
0
DICTIONARY
5
C
100
AcDbDictionary
3
ACAD_GROUP
350
D
3
ACAD_MLINESTYLE
350
17
0
DICTIONARY
5
D
100
AcDbDictionary
0
DICTIONARY
5
1A
330
C
100
AcDbDictionary
0
DICTIONARY
5
17
100
AcDbDictionary
0
ENDSEC
0
EOF
